<?xml version="1.0" encoding="UTF-8"?>
<svg id="_04_Icon" data-name="04_Icon" xmlns="http://www.w3.org/2000/svg" xmlns:xlink="http://www.w3.org/1999/xlink" viewBox="0 0 4000 4000">
  <defs>
    <style>
      .cls-1 {
        fill: url(#linear-gradient);
      }

      .cls-1, .cls-2, .cls-3, .cls-4, .cls-5 {
        stroke-width: 0px;
      }

      .cls-2 {
        fill: url(#linear-gradient-4);
      }

      .cls-3 {
        fill: url(#linear-gradient-2);
      }

      .cls-4 {
        fill: url(#linear-gradient-3);
      }

      .cls-5 {
        fill: #00777d;
      }
    </style>
    <linearGradient id="linear-gradient" x1="1996.93" y1="2232.75" x2="3613.93" y2="2232.75" gradientUnits="userSpaceOnUse">
      <stop offset="0" stop-color="#004d49"/>
      <stop offset=".49" stop-color="#00777d"/>
    </linearGradient>
    <linearGradient id="linear-gradient-2" x1="1459.99" y1="2795.62" x2="2759.77" y2="2795.62" xlink:href="#linear-gradient"/>
    <linearGradient id="linear-gradient-3" x1="1056.52" y1="3008.67" x2="3179.93" y2="3008.67" xlink:href="#linear-gradient"/>
    <linearGradient id="linear-gradient-4" x1="929.87" y1="2423.14" x2="3499.65" y2="3805.38" xlink:href="#linear-gradient"/>
  </defs>
  <g id="Logo-2" data-name="Logo">
    <g id="Icon">
      <path id="stripe" class="cls-1" d="M2047.39,2098h1516.08c27.85,0,50.46,22.61,50.46,50.46v218.57c0,.26-.21.46-.46.46h-1616.54v-219.04c0-27.85,22.61-50.46,50.46-50.46Z"/>
      <path id="shadow_S" class="cls-3" d="M2759.77,2635.93s-.02.04-.02.06c-.91,2.57-1.83,5.13-2.78,7.7-1.27,3.51-2.57,7.01-3.9,10.52-1.36,3.6-2.76,7.2-4.18,10.8-1.25,3.15-2.52,6.3-3.82,9.42-1.08,2.63-2.18,5.24-3.28,7.87-40.73,96.29-99,182.74-173.17,256.89-74.15,74.17-160.6,132.44-256.89,173.17-99.87,42.24-205.77,63.65-314.8,63.65-68.78,0-136.32-8.52-201.89-25.42-196.48-186.43-322.73-446.14-335.04-735.35,23.76,270.47,247.23,483.59,522.06,491.05.32.02.65.02.97.02.63.02,1.27.02,1.9.04h.11c3.21.06,6.4.11,9.59.13,3.88,0,7.76,0,11.66-.06,1.01,0,2.03-.02,3.04-.06,1.08,0,2.18-.04,3.28-.06,2.16-.06,4.31-.15,6.49-.24,1.16-.04,2.33-.11,3.49-.17.28.02.56,0,.84-.04,1.03-.02,2.07-.06,3.08-.15.73-.02,1.47-.06,2.2-.11.97-.04,1.92-.11,2.89-.19,3.15-.17,6.27-.41,9.38-.67,1.51-.11,3-.24,4.46-.37.45-.04.88-.09,1.32-.13,1.66-.15,3.32-.3,4.96-.47.54-.04,1.08-.09,1.62-.17,1.96-.19,3.92-.41,5.86-.65,3.82-.41,7.61-.91,11.41-1.42,1.03-.13,2.07-.28,3.1-.41,2.22-.32,4.44-.67,6.66-1.01.95-.13,1.9-.28,2.82-.45,1.81-.28,3.6-.58,5.39-.88,1.4-.24,2.78-.47,4.18-.73,1.9-.35,3.79-.69,5.69-1.06,2.35-.45,4.7-.91,7.03-1.38,1.01-.22,2.03-.41,3.04-.65,5.48-1.14,10.93-2.37,16.36-3.71,2.22-.54,4.44-1.08,6.66-1.66,3-.78,5.99-1.57,8.97-2.39,2.76-.75,5.52-1.53,8.26-2.35,1.27-.35,2.5-.73,3.75-1.12,1.01-.3,2.03-.6,3.02-.91.86-.26,1.72-.54,2.59-.8.75-.24,1.49-.47,2.22-.71,1.42-.43,2.85-.91,4.25-1.36,3.17-1.03,6.3-2.09,9.42-3.19,1.42-.47,2.87-.99,4.27-1.51,17.46-6.23,34.5-13.35,51.08-21.28,1.81-.86,3.62-1.72,5.41-2.63.34-.17.71-.34,1.06-.52,1.6-.78,3.19-1.57,4.76-2.39,4.1-2.07,8.15-4.2,12.18-6.38,1.36-.71,2.72-1.47,4.07-2.22,5.93-3.26,11.79-6.64,17.57-10.11,1.51-.91,3-1.81,4.48-2.74.88-.54,1.77-1.08,2.63-1.62,1.85-1.14,3.69-2.31,5.5-3.47,4.72-3.02,9.38-6.12,13.99-9.27,1.92-1.32,3.84-2.63,5.74-3.99.8-.56,1.6-1.12,2.39-1.7,1.85-1.29,3.71-2.63,5.54-3.99,2.07-1.51,4.12-3.02,6.17-4.57.39-.3.8-.58,1.19-.88,1.55-1.19,3.1-2.37,4.66-3.58,1.96-1.51,3.9-3.04,5.84-4.59.86-.69,1.75-1.38,2.61-2.09,1.98-1.6,3.97-3.21,5.93-4.85,2.13-1.77,4.27-3.58,6.38-5.39,1.92-1.64,3.84-3.3,5.73-4.98.6-.52,1.19-1.06,1.79-1.6,1.94-1.7,3.86-3.45,5.78-5.22,1.6-1.42,3.15-2.89,4.72-4.38.47-.41.93-.84,1.36-1.29,1.16-1.06,2.31-2.16,3.45-3.28.75-.69,1.49-1.4,2.24-2.13,1.38-1.32,2.72-2.65,4.07-4.03.65-.6,1.27-1.23,1.9-1.88,1.36-1.36,2.74-2.74,4.05-4.12,4.92-5.02,9.72-10.13,14.4-15.35.78-.8,1.49-1.6,2.18-2.39,2.54-2.85,5.07-5.71,7.55-8.62,1.27-1.49,2.54-2.98,3.77-4.48.3-.32.56-.65.82-.99.56-.65,1.1-1.29,1.62-1.94.06-.06.13-.13.17-.22,1.08-1.25,2.11-2.52,3.1-3.79.13-.15.26-.28.34-.43.52-.63,1.01-1.23,1.49-1.85.17-.19.32-.37.45-.56,1.12-1.38,2.24-2.78,3.32-4.18.78-.97,1.53-1.94,2.26-2.93,1.03-1.32,2.05-2.65,3.06-3.99,4.68-6.17,9.21-12.44,13.6-18.82.73-1.06,1.47-2.11,2.16-3.17.11-.13.22-.28.28-.41,1.25-1.79,2.44-3.58,3.62-5.39,1.32-1.96,2.59-3.92,3.86-5.91.06-.09.13-.19.19-.3.88-1.38,1.77-2.76,2.63-4.14,1.12-1.77,2.22-3.54,3.3-5.33,1.16-1.88,2.31-3.75,3.43-5.65,1.42-2.39,2.85-4.81,4.25-7.24.02-.02.04-.02.04-.02h295.29Z"/>
      <path class="cls-5" d="M2715.98,761.38c-.39,18.09-2.57,36.42-6.79,55.02-6.23,27.53-16.34,52.89-29.13,76.73-18.41,34.3-42.45,65.43-68.69,95.34-.8.93-1.62,1.83-2.46,2.74l-994.14,994.14s-7.2,9.4-11.21,13.69c-.04.04-11.02,12.03-16.28,18.18-1.16,1.36-2.33,2.74-3.49,4.12-.8.95-1.6,1.9-2.37,2.85-.8.95-1.57,1.9-2.35,2.85-2.2,2.72-4.4,5.45-6.55,8.19-1.83,2.33-3.64,4.68-5.41,7.03-.3.39-.6.8-.91,1.21-.78.99-1.53,2-2.26,3.02-.75.99-1.49,2.01-2.22,3.02-.8,1.06-1.6,2.13-2.35,3.21-5.48,7.61-10.76,15.37-15.85,23.26-1.25,1.9-2.46,3.82-3.67,5.76-2.63,4.18-5.22,8.43-7.74,12.72-1.38,2.35-2.76,4.72-4.12,7.11-.06.13-.13.24-.19.37-1.16,2.05-2.31,4.1-3.45,6.17-.37.67-.73,1.34-1.1,2-1.14,2.11-2.29,4.25-3.41,6.38-1.21,2.29-2.39,4.57-3.56,6.88-4.83,9.44-9.38,19.06-13.63,28.83-.8,1.83-1.6,3.69-2.37,5.52-.86,2.01-1.7,4.03-2.52,6.06-.97,2.35-1.92,4.72-2.82,7.09-.67,1.66-1.32,3.32-1.94,4.98-.56,1.47-1.12,2.93-1.66,4.42-.54,1.49-1.1,2.95-1.62,4.44-1.81,5.02-3.56,10.07-5.22,15.16-.45,1.4-.91,2.8-1.36,4.23-.45,1.4-.88,2.8-1.32,4.23-.54,1.75-1.08,3.51-1.6,5.26-.65,2.11-1.25,4.25-1.85,6.38-.45,1.55-.88,3.1-1.29,4.66-.5,1.75-.97,3.52-1.42,5.28-.88,3.34-1.75,6.71-2.54,10.07-.5,2.01-.97,3.99-1.42,5.99-.47,2-.93,4.01-1.36,6.02-.45,2-.86,4.03-1.27,6.06-.28,1.32-.56,2.65-.8,3.99-.32,1.53-.63,3.08-.91,4.61-.73,3.73-1.4,7.48-2.01,11.25-.3,1.77-.58,3.56-.86,5.32-.45,2.8-.88,5.61-1.25,8.43-.17.99-.3,1.98-.43,3-.09.63-.17,1.25-.24,1.87-.22,1.49-.41,3-.58,4.51-.26,2.07-.52,4.14-.73,6.23-.41,3.64-.78,7.29-1.1,10.97-.09.84-.17,1.7-.24,2.54-.11,1.29-.22,2.59-.32,3.88-.06.86-.13,1.75-.19,2.63-.15,1.85-.26,3.73-.39,5.61-.15,2.29-.28,4.57-.39,6.88-.19,3.88-.37,7.78-.47,11.69-.06,2.11-.11,4.23-.15,6.34-.02.93-.02,1.85-.04,2.76-.06,4.66-.06,9.29,0,13.93.02,2.33.06,4.64.13,6.94.28,11.36.93,22.64,1.9,33.83,12.31,289.21,138.57,548.92,335.04,735.35-38.36-9.87-76.04-22.64-112.91-38.23-62.01-26.24-119.94-59.74-173.13-100.08-29.41-22.29-57.35-46.68-83.76-73.09-74.17-74.14-132.44-160.6-173.17-256.89-.26-.63-.52-1.23-.78-1.85v-.02c-1.06-2.5-2.09-5-3.13-7.5-.63-1.55-1.27-3.13-1.9-4.7-.63-1.57-1.27-3.15-1.88-4.72-8.77-22.29-16.54-44.87-23.26-67.7-.93-3.13-1.81-6.25-2.7-9.4-.78-2.74-1.53-5.48-2.29-8.22-1.06-3.94-2.07-7.87-3.08-11.81-.65-2.48-1.27-4.98-1.88-7.48-.82-3.43-1.62-6.86-2.41-10.31-.45-1.96-.91-3.95-1.34-5.93-3.51-15.87-6.53-31.87-9.08-47.93v-.04c-3.26-20.55-5.71-41.29-7.37-62.16-.58-7.31-1.06-14.62-1.44-21.95-.75-14.29-1.12-28.65-1.12-43.08,0-22.81.93-45.47,2.8-67.98.02-.11.02-.19.02-.28,7.09-84.99,27.47-167.65,60.82-246.54,20.33-48.1,45.06-93.74,73.97-136.63.02-.04.04-.09.06-.11,43.03-55.69,78.5-97.13,95.81-116.79,1.12-1.27,2.16-2.44,3.1-3.51l.19-.22,972.55-972.55.02-.02,260.86-260.85c6.36,11.66,12.33,23.48,17.96,35.53,3.97,8.52,7.7,17.08,11.19,25.68,18.13,44.7,29.26,90.55,28.18,138.16Z"/>
      <path id="shadow_M" class="cls-4" d="M3179.93,2633.86c-.09.37-.17.71-.26,1.08-15.7,69.08-37.49,136.73-65.35,202.6-61.08,144.43-148.51,274.11-259.84,385.45-89.8,89.8-191.54,164.05-303.33,221.44-26.8,13.78-54.18,26.58-82.12,38.4-66.41,28.07-134.64,50.02-204.3,65.74h-.02c-87.25,19.71-176.77,29.62-267.78,29.62-17.53,0-34.99-.37-52.41-1.1-120.74-5.09-238.58-27.83-351.69-67.87l-.02-.02c-311.24-257.47-515.54-639.69-536.29-1070.05,2.33,30.62,6.14,60.97,11.41,90.98,12.2,69.38,32.19,137.06,59.83,202.43,27.01,63.88,60.69,124.08,100.64,180.05,30.27,42.43,64.18,82.45,101.55,119.81,24.88,24.88,50.92,48.21,78.07,69.96v.02c67.44,54.05,141.71,98.34,221.79,132.21,32.12,13.58,64.81,25.33,97.99,35.19,86.8,25.85,176.97,38.89,269.13,38.89,5.2,0,10.39-.04,15.59-.13h.02c121.88-1.94,240.07-26.8,351.52-73.95,112.31-47.5,213.19-115.52,299.86-202.19,86.67-86.67,154.69-187.55,202.19-299.86,13.69-32.36,25.51-65.28,35.4-98.7h278.43Z"/>
      <path class="cls-5" d="M2428.93,482.96c-.8,15.37-2.91,30.94-6.49,46.7-7.55,33.31-20.74,63.45-37.54,91.55h-.02c-17.05,28.54-37.84,55-60.26,80.53-.8.93-1.62,1.83-2.46,2.74l-993.06,993.06.84.84c-.22.22-.43.43-.63.65-86.39,86.52-154.18,187.18-201.57,299.21-1.25,2.93-2.46,5.86-3.67,8.82-.93,2.22-1.83,4.44-2.72,6.68-.47,1.12-.93,2.24-1.36,3.38-.88,2.22-1.77,4.46-2.63,6.68-3,7.7-5.91,15.44-8.67,23.2-.8,2.13-1.55,4.29-2.29,6.45-.58,1.59-1.14,3.19-1.68,4.81-1.06,3.02-2.07,6.06-3.08,9.08-.65,1.92-1.27,3.86-1.9,5.78-1.01,3.04-1.98,6.1-2.93,9.14-.86,2.7-1.7,5.39-2.5,8.09-1.23,3.99-2.41,8-3.58,12.01-.47,1.6-.93,3.19-1.38,4.81-.69,2.41-1.36,4.85-2.03,7.26-.43,1.51-.84,3.02-1.25,4.53-.82,3.1-1.66,6.21-2.46,9.31-.63,2.37-1.21,4.72-1.79,7.09-.17.58-.3,1.16-.45,1.77-.09.37-.19.73-.26,1.1-.39,1.49-.75,2.98-1.1,4.48-.11.32-.17.67-.26,1.01-.78,3.21-1.53,6.45-2.26,9.66-.95,4.07-1.85,8.15-2.72,12.22-.78,3.51-1.51,7.05-2.2,10.56-.28,1.23-.52,2.46-.75,3.67-.69,3.45-1.36,6.9-2.01,10.35-1.38,7.33-2.67,14.68-3.88,22.06-1.03,6.32-1.98,12.66-2.91,19.02-.41,2.78-.8,5.56-1.14,8.34-.11.67-.19,1.32-.26,1.98-1.98,15.2-3.6,30.46-4.83,45.82,0,.09,0,.17-.02.26-2.09,25.72-3.13,51.64-3.13,77.7,0,5.24.04,10.48.15,15.7v.04c.32,19.32,1.21,38.51,2.67,57.61,0,.13.02.24.02.37,20.74,430.36,225.04,812.58,536.29,1070.05-22.85-8.09-45.53-16.88-67.98-26.37-4.51-1.92-9.01-3.84-13.5-5.8-4.48-1.96-8.95-3.95-13.41-5.97-3.49-1.57-6.99-3.17-10.48-4.79-1.51-.69-3.02-1.38-4.51-2.09-3.86-1.81-7.72-3.64-11.58-5.5-4.27-2.05-8.56-4.14-12.81-6.25-.19-.09-.37-.17-.54-.26-3.9-1.94-7.8-3.9-11.69-5.89-.95-.47-1.9-.95-2.85-1.44-3.77-1.94-7.52-3.88-11.28-5.86-4.31-2.26-8.6-4.55-12.87-6.88-3.92-2.11-7.85-4.27-11.73-6.42-.84-.45-1.66-.91-2.48-1.4-3.77-2.09-7.52-4.2-11.28-6.36-3.17-1.81-6.32-3.64-9.46-5.5-1.66-.95-3.32-1.92-4.96-2.91-.28-.15-.56-.32-.82-.5-3.15-1.85-6.27-3.71-9.38-5.61-.32-.17-.63-.37-.95-.58-2.61-1.57-5.2-3.15-7.78-4.76-.65-.37-1.27-.75-1.9-1.16-2.05-1.25-4.1-2.54-6.12-3.82-3.02-1.88-6.02-3.77-9.01-5.71-2.82-1.79-5.65-3.62-8.45-5.48-1.25-.8-2.52-1.62-3.77-2.46-6.77-4.44-13.52-8.97-20.2-13.58-2.01-1.36-4.01-2.76-6.02-4.16-2.44-1.66-4.85-3.36-7.29-5.09v-.02h-.02c-.26-.17-.5-.37-.75-.54-1.62-1.14-3.26-2.31-4.87-3.47-2.24-1.57-4.46-3.19-6.68-4.81-1.42-1.03-2.87-2.07-4.29-3.15-2.18-1.57-4.36-3.17-6.51-4.79-2.46-1.81-4.89-3.64-7.33-5.52-.5-.34-.99-.71-1.49-1.1-2.7-2.03-5.39-4.1-8.06-6.17-1.32-.99-2.63-2-3.92-3.04-2.59-2.01-5.2-4.03-7.76-6.08-3.38-2.65-6.75-5.35-10.11-8.06-3.23-2.61-6.45-5.24-9.66-7.89-3.45-2.85-6.88-5.69-10.31-8.58-3.38-2.85-6.75-5.71-10.09-8.62-.02,0-.02-.02-.02-.02-1.47-1.25-2.91-2.5-4.36-3.77-2.44-2.11-4.87-4.25-7.29-6.38-1.62-1.44-3.23-2.87-4.85-4.33-1.53-1.36-3.06-2.74-4.59-4.14-1.62-1.42-3.21-2.89-4.83-4.38-2.52-2.29-5.05-4.61-7.55-6.96-.63-.56-1.25-1.14-1.88-1.72-2.78-2.57-5.52-5.15-8.26-7.78-.91-.84-1.81-1.7-2.72-2.59-2.18-2.07-4.36-4.16-6.53-6.3-4.57-4.4-9.12-8.88-13.63-13.39-3.95-3.95-7.85-7.89-11.69-11.88-2.98-3.02-5.91-6.06-8.8-9.1-4.03-4.23-8.02-8.47-11.97-12.74-2.5-2.67-4.94-5.32-7.4-8.02-.78-.86-1.57-1.72-2.35-2.61-1.96-2.13-3.88-4.29-5.8-6.45-1.72-1.94-3.45-3.88-5.15-5.82-1.1-1.21-2.16-2.44-3.23-3.67-2.37-2.7-4.72-5.41-7.05-8.15-2.76-3.19-5.5-6.42-8.21-9.66-3.73-4.42-7.42-8.86-11.04-13.35-7.68-9.36-15.2-18.84-22.53-28.42-2.24-2.91-4.46-5.84-6.68-8.77-.58-.75-1.16-1.53-1.7-2.29-2.52-3.36-5-6.71-7.48-10.09-2.37-3.23-4.74-6.49-7.07-9.75-.39-.52-.75-1.01-1.1-1.53-2.41-3.39-4.83-6.77-7.22-10.18v-.02c-1.88-2.67-3.73-5.35-5.58-8.02-1.88-2.67-3.71-5.37-5.5-8.06-1.38-2.03-2.76-4.07-4.12-6.12-.95-1.38-1.88-2.78-2.78-4.16-1.25-1.9-2.5-3.79-3.73-5.69-3.99-6.08-7.91-12.18-11.75-18.33l-4.07-6.53c-1.75-2.8-3.47-5.61-5.17-8.43v-.04c-1.92-3.13-3.82-6.27-5.69-9.44-1.85-3.08-3.69-6.21-5.5-9.34-.17-.24-.32-.5-.45-.75-1.66-2.82-3.3-5.69-4.94-8.54-2.74-4.76-5.41-9.55-8.06-14.36-1.6-2.87-3.17-5.73-4.72-8.62-.41-.69-.78-1.4-1.14-2.11-1.94-3.56-3.86-7.16-5.73-10.76-.28-.47-.54-.97-.8-1.47-2.05-3.9-4.07-7.81-6.08-11.73-.43-.84-.86-1.66-1.27-2.5-1.7-3.36-3.41-6.73-5.09-10.11-.47-.93-.93-1.88-1.4-2.82-1.53-3.1-3.06-6.23-4.55-9.36-2.72-5.58-5.37-11.19-7.98-16.82-1.81-3.88-3.58-7.76-5.33-11.64-.19-.37-.34-.71-.5-1.08-1.53-3.36-3.04-6.75-4.51-10.13-.54-1.19-1.06-2.37-1.57-3.56-1.81-4.14-3.58-8.28-5.35-12.44-4.83-11.38-9.46-22.83-13.91-34.34-.82-2.07-1.62-4.16-2.41-6.25-.69-1.83-1.38-3.67-2.07-5.5-.5-1.29-.99-2.61-1.47-3.92-.73-1.92-1.44-3.86-2.13-5.78-3.71-10.13-7.29-20.29-10.72-30.51-.86-2.54-1.7-5.11-2.54-7.68-.65-1.96-1.29-3.95-1.92-5.93-2.78-8.58-5.45-17.2-8.02-25.83-.99-3.28-1.94-6.55-2.89-9.83,0-.02-.02-.02-.02-.04-.95-3.28-1.88-6.53-2.78-9.81-.84-3-1.66-5.97-2.46-8.97-.99-3.58-1.96-7.18-2.89-10.8-.75-2.89-1.51-5.78-2.22-8.67-1.88-7.37-3.69-14.77-5.39-22.19-.65-2.67-1.25-5.35-1.85-8.02-1.66-7.29-3.23-14.57-4.72-21.88-.63-3.02-1.25-6.04-1.83-9.03-1.34-6.7-2.61-13.41-3.82-20.14-1.19-6.55-2.31-13.13-3.38-19.71-1.19-7.18-2.29-14.34-3.32-21.54-.45-3.13-.91-6.25-1.32-9.38-.47-3.39-.93-6.79-1.36-10.18-2.76-21.54-4.96-43.21-6.55-64.96v-.02c-.6-8-1.12-16-1.55-24.02-1.21-22.29-1.81-44.69-1.81-67.18,0-32.41,1.25-64.59,3.77-96.57.02-.3.04-.63.06-.93.86-10.76,1.85-21.5,2.98-32.21,12.5-117.93,42.13-232.65,88.55-342.39,23-54.35,49.72-106.64,80.05-156.63,39.78-65.61,85.79-127.29,137.73-184.6L2372.65,276.67c6.08,11.21,11.79,22.55,17.2,34.13,5.93,12.76,11.38,25.59,16.19,38.55h.02c16.08,43.23,25.27,87.6,22.85,133.61Z"/>
      <path id="shadow_L" class="cls-2" d="M3591.75,2647.42c-40.17,240.42-133.37,462.85-267.19,654.91-89.95,129.12-198.29,244.49-321.18,342.35-107.05,85.25-225.15,157.17-351.82,213.29h-.02c-122.05,54.14-252.06,93.57-387.78,116.12h-.04c-57.72,9.57-116.45,16.08-176.06,19.38h-.04c-30.01,1.68-60.26,2.52-90.68,2.52-38.23,0-76.15-1.34-113.73-3.95-13.67-.95-27.3-2.07-40.86-3.36h-.02l-.02-.02c-18.3-1.72-36.54-3.75-54.65-6.1-2.24-.28-4.46-.58-6.68-.88-25.68-3.43-51.18-7.46-76.47-12.07h-.02c-1.9-.35-3.79-.69-5.69-1.06-2.65-.5-5.3-.99-7.93-1.49-3.38-.65-6.77-1.32-10.13-1.98-2.85-.56-5.71-1.14-8.56-1.72-13.52-2.76-26.99-5.67-40.38-8.77-2.82-.65-5.65-1.32-8.47-1.98-2.67-.63-5.33-1.27-7.98-1.92-15.83-3.82-31.56-7.87-47.2-12.16-3.95-1.08-7.89-2.18-11.84-3.3-8.54-2.41-17.05-4.89-25.55-7.46-4.98-1.49-9.94-3.02-14.9-4.55-1.03-.32-2.05-.63-3.06-.95-4.2-1.32-8.39-2.65-12.57-4.01-.28-.09-.58-.17-.88-.28-5.02-1.62-10.03-3.28-15.03-4.94-5.13-1.72-10.24-3.45-15.35-5.22-3.13-1.08-6.25-2.16-9.36-3.26-3.13-1.1-6.23-2.2-9.34-3.32-3.23-1.16-6.47-2.33-9.68-3.51-2.98-1.08-5.93-2.18-8.88-3.28-1.53-.58-3.08-1.16-4.64-1.75-4.64-1.75-9.25-3.49-13.84-5.28-1.98-.78-3.99-1.55-5.97-2.33-5.5-2.16-11-4.33-16.47-6.55-425.19-325.73-707.71-828.34-737.59-1397.87,1.38,18.89,3.17,37.73,5.37,56.49.3,2.72.63,5.43.97,8.15.43,3.62.91,7.27,1.38,10.89.22,1.79.45,3.56.71,5.33.32,2.57.69,5.15,1.03,7.72.02.09.04.15.04.24,0,.04.02.09.02.13.52,3.64,1.03,7.31,1.6,10.95.63,4.2,1.27,8.41,1.94,12.59.39,2.46.78,4.92,1.19,7.35.73,4.42,1.49,8.8,2.26,13.22v.04c.02.17.04.34.09.54.93,5.28,1.9,10.56,2.89,15.85,1.53,8.17,3.15,16.34,4.85,24.51.56,2.72,1.14,5.41,1.72,8.13,1.14,5.39,2.33,10.78,3.56,16.17.09.34.15.69.24,1.03,2.39,10.5,4.92,20.98,7.57,31.41,1.14,4.55,2.33,9.08,3.54,13.63.93,3.49,1.85,7.01,2.82,10.5.56,2.09,1.14,4.18,1.75,6.27,2.39,8.6,4.87,17.16,7.44,25.72.8,2.65,1.62,5.33,2.44,7.98.8,2.65,1.64,5.3,2.48,7.96.82,2.65,1.66,5.3,2.52,7.93.73,2.33,1.49,4.66,2.24,6.96.99,2.95,1.96,5.93,2.95,8.88.71,2.16,1.44,4.31,2.18,6.45.37,1.08.75,2.18,1.12,3.26.91,2.65,1.83,5.3,2.76,7.93,2.54,7.27,5.15,14.49,7.83,21.71.97,2.61,1.94,5.22,2.93,7.83.97,2.61,1.96,5.2,2.98,7.8.99,2.61,2.01,5.22,3.02,7.8,4.38,11.19,8.93,22.31,13.6,33.4,33.76,79.79,75.55,156.76,124.21,228.8,2.2,3.26,4.42,6.53,6.68,9.77,1.98,2.91,3.99,5.8,6.04,8.69,1.98,2.87,3.99,5.74,6.04,8.58,2.63,3.69,5.28,7.37,7.96,11.06.02.02.04.06.06.09,1.4,1.94,2.8,3.86,4.23,5.78,1.44,1.96,2.89,3.92,4.36,5.89,1.16,1.57,2.33,3.15,3.51,4.72,2.78,3.71,5.58,7.4,8.41,11.08,2.8,3.67,5.63,7.31,8.47,10.93,1.27,1.64,2.57,3.28,3.86,4.89,1.64,2.09,3.3,4.18,5,6.27,1.4,1.79,2.85,3.56,4.27,5.33,2.57,3.19,5.13,6.34,7.74,9.49,1.4,1.72,2.82,3.45,4.27,5.15,1.57,1.92,3.17,3.82,4.79,5.71,1.96,2.35,3.95,4.68,5.93,7.01,2.5,2.95,5.02,5.91,7.59,8.84,5.09,5.89,10.22,11.71,15.44,17.48.47.54.97,1.1,1.49,1.64,1.53,1.7,3.06,3.41,4.61,5.11.86.97,1.77,1.94,2.67,2.91,1.85,2.05,3.73,4.08,5.61,6.1,1.34,1.47,2.7,2.93,4.07,4.38,3.51,3.77,7.05,7.52,10.61,11.23,1.9,2,3.82,3.97,5.73,5.95.82.86,1.66,1.7,2.5,2.57,1.32,1.36,2.63,2.72,3.97,4.05,2.91,3,5.84,5.95,8.8,8.9,3.28,3.28,6.6,6.55,9.92,9.81,1.88,1.85,3.77,3.69,5.67,5.5,1.98,1.96,3.97,3.86,5.97,5.76,1.42,1.38,2.85,2.76,4.29,4.1,2.37,2.26,4.74,4.51,7.14,6.71,1.25,1.19,2.52,2.37,3.79,3.54,2.13,2.01,4.29,3.97,6.45,5.95,1.96,1.81,3.95,3.62,5.95,5.41,3.75,3.41,7.52,6.77,11.32,10.13,3.32,2.95,6.68,5.89,10.05,8.8,2.67,2.33,5.37,4.64,8.09,6.92.95.84,1.9,1.66,2.85,2.44,2.54,2.18,5.09,4.31,7.65,6.45,1.1.95,2.22,1.88,3.34,2.78,3.21,2.72,6.47,5.37,9.72,8,3.56,2.91,7.11,5.78,10.72,8.65,3.58,2.87,7.18,5.71,10.8,8.54,3.62,2.82,7.24,5.63,10.89,8.43,5.45,4.18,10.95,8.34,16.47,12.42,5.52,4.1,11.06,8.15,16.64,12.12,0,.02.02.02.02.02,0,0,0,.02.02.02,2.63,1.9,5.26,3.77,7.91,5.65,2.98,2.13,5.95,4.23,8.93,6.3,1.32.91,2.61,1.81,3.92,2.72,3.69,2.54,7.37,5.07,11.08,7.57,3.71,2.5,7.42,4.98,11.15,7.44,1.4.95,2.82,1.88,4.25,2.8,3.3,2.18,6.6,4.31,9.92,6.43,4.03,2.61,8.06,5.17,12.12,7.72,2.26,1.42,4.53,2.85,6.79,4.23,6.73,4.18,13.5,8.3,20.29,12.33,2.44,1.47,4.87,2.91,7.33,4.33,3.04,1.81,6.1,3.6,9.18,5.35,2.89,1.68,5.82,3.34,8.73,5,.26.15.52.3.8.45,6.06,3.43,12.14,6.79,18.24,10.13,3.1,1.7,6.21,3.38,9.34,5.04.17.11.37.22.54.3,2.93,1.57,5.89,3.15,8.84,4.68,3.13,1.64,6.27,3.28,9.42,4.89,3.15,1.62,6.3,3.23,9.44,4.83.41.22.82.43,1.23.63,6.23,3.15,12.48,6.23,18.76,9.29,6.94,3.36,13.93,6.68,20.93,9.92,2.85,1.34,5.69,2.63,8.56,3.92,1.16.54,2.31,1.08,3.49,1.6,5.89,2.67,11.77,5.28,17.7,7.85,3.9,1.7,7.83,3.38,11.75,5.04,17.64,7.46,35.4,14.53,53.3,21.22h.02l.02.02c123.47,46.12,252.34,73.54,384.63,81.82h.02l.02.02c28.65,1.79,57.46,2.7,86.41,2.7,90.83,0,180.26-8.86,267.71-26.45h.04c87.77-17.68,173.54-44.15,256.67-79.32,21.37-9.03,42.52-18.65,63.43-28.83h.02c57.22-27.81,112.61-59.74,165.34-95.38,3.34-2.26,6.68-4.55,10.03-6.86,9.49-6.53,18.93-13.19,28.27-20.01,3.23-2.35,6.47-4.7,9.68-7.09,2.24-1.66,4.48-3.34,6.73-5.02,22.08-16.56,43.66-33.81,64.68-51.72h.02c27.73-23.59,54.5-48.29,80.2-73.99,61.06-61.04,116.47-128.2,164.7-199.6,48.66-72.03,90.44-149,124.21-228.8,35.08-82.9,61.49-168.47,79.17-256h273.92Z"/>
      <path class="cls-5" d="M2135.69,259.08c-.22.93-.43,1.85-.67,2.78-14.32,60.39-47.15,110.32-86.3,156.7h-.02c-3.56,4.23-7.16,8.43-10.82,12.59l-193.78,194.11h-.02l-338.69,339.27h-.02l-385.93,386.55s0,.02-.02.02c0,0,0,.02-.02.02l-75.29,75.42c-11.1,11.1-22.01,22.4-32.71,33.89l-.35.34c-4.68,5.02-9.31,10.07-13.86,15.16-.93.99-1.83,1.98-2.7,2.98-.75.8-1.47,1.62-2.18,2.41l-.02.02c-2.54,2.82-5.07,5.65-7.55,8.49-.26.28-.5.58-.73.86-2.72,3.06-5.39,6.12-8.04,9.23-5.99,6.92-11.9,13.93-17.74,20.98-1.72,2.07-3.43,4.16-5.13,6.25-6.77,8.28-13.45,16.62-20.01,25.05-1.92,2.46-3.82,4.92-5.71,7.37-.24.3-.47.6-.69.91-2.09,2.72-4.16,5.45-6.21,8.19-3.19,4.2-6.36,8.43-9.46,12.68-.75.99-1.49,2-2.2,3.02-.3.37-.58.75-.86,1.14-1.08,1.44-2.13,2.91-3.17,4.38-6.08,8.37-12.05,16.82-17.92,25.31-2.5,3.64-5,7.29-7.46,10.93-48.66,72.03-90.44,149-124.21,228.79-1.44,3.43-2.89,6.86-4.29,10.29-1.42,3.43-2.82,6.86-4.2,10.28-1.6,3.95-3.17,7.89-4.72,11.86-1.16,2.93-2.31,5.89-3.43,8.84-1.34,3.45-2.65,6.9-3.95,10.37-1.32,3.47-2.59,6.92-3.86,10.41-1.06,2.85-2.09,5.71-3.1,8.56-1.47,4.12-2.91,8.21-4.33,12.33-.02.04-.04.09-.04.13-3.06,8.77-6.02,17.59-8.88,26.45-.09.28-.17.56-.28.84-2.78,8.6-5.45,17.23-8.06,25.89-.67,2.24-1.34,4.46-1.98,6.7-1.06,3.58-2.11,7.16-3.13,10.76-.91,3.15-1.79,6.27-2.65,9.42-1.08,3.84-2.13,7.68-3.15,11.51-.34,1.27-.69,2.54-1.01,3.82-1.03,3.9-2.05,7.81-3.06,11.71-.06.24-.11.45-.17.67-1.06,4.2-2.11,8.43-3.15,12.63-.04.17-.09.34-.13.5-1.08,4.46-2.13,8.9-3.17,13.37-1.75,7.46-3.43,14.94-5.02,22.42-.15.67-.3,1.32-.41,1.96-.32,1.49-.65,2.95-.95,4.44-.86,4.08-1.68,8.13-2.5,12.2-.93,4.57-1.81,9.14-2.67,13.73-.86,4.59-1.7,9.19-2.52,13.78-.69,3.84-1.36,7.68-2.01,11.51-.22,1.27-.43,2.54-.65,3.82-.6,3.69-1.21,7.4-1.79,11.1-.09.6-.19,1.19-.28,1.79-.69,4.42-1.36,8.84-2.01,13.28-.65,4.33-1.25,8.69-1.83,13.04-.69,5.04-1.36,10.07-1.98,15.11-.5,3.97-.97,7.93-1.42,11.9-.6,5.35-1.21,10.69-1.75,16.06-.43,4.05-.82,8.11-1.19,12.16-.11,1.01-.22,2-.28,3.02-.41,4.16-.78,8.32-1.1,12.5-.19,2.33-.39,4.66-.58,7.01,0,.15-.02.3-.02.45-.11,1.34-.19,2.65-.3,3.99l-.32,4.46c-.22,2.98-.41,5.95-.6,8.95-.39,6.14-.75,12.31-1.06,18.48-.22,4.14-.41,8.28-.58,12.42-.22,5.33-.41,10.67-.56,16-.11,3.41-.19,6.81-.28,10.22-.04,1.9-.06,3.79-.11,5.69-.06,2.85-.11,5.67-.13,8.52-.02,1.81-.04,3.62-.06,5.43-.02,3.88-.04,7.74-.04,11.62s.02,7.87.06,11.79c.02,3.28.04,6.55.11,9.83.02,1.31.04,2.63.06,3.94.13,6.64.3,13.26.52,19.9.13,4.03.28,8.09.45,12.12.3,7.24.65,14.49,1.08,21.71.19,3.73.43,7.46.69,11.19.19,3.17.41,6.32.67,9.49.02.24.02.47.04.71.02.32.04.67.06.99,29.88,569.53,312.41,1072.14,737.59,1397.87-12.89-5.22-25.68-10.59-38.4-16.13-5.48-2.39-10.95-4.81-16.41-7.24-5.45-2.44-10.89-4.92-16.3-7.42-4.74-2.2-9.46-4.4-14.19-6.64-3.36-1.6-6.73-3.21-10.09-4.83-2.7-1.29-5.37-2.59-8.04-3.9-3.34-1.64-6.71-3.3-10.03-4.96-4.68-2.31-9.34-4.66-13.97-7.03-5.3-2.7-10.59-5.43-15.85-8.19-3.99-2.09-7.98-4.2-11.97-6.34-1.27-.67-2.54-1.36-3.79-2.03-3.58-1.92-7.14-3.86-10.72-5.82-4.25-2.33-8.49-4.68-12.74-7.05-.47-.28-.97-.54-1.44-.82-3.69-2.07-7.37-4.14-11.04-6.25-.3-.17-.63-.35-.95-.54-.69-.39-1.38-.78-2.07-1.19-3.62-2.07-7.2-4.16-10.78-6.25-14.36-8.39-28.55-16.99-42.6-25.79-5.02-3.15-10.03-6.32-15.01-9.53-4.98-3.19-9.96-6.42-14.9-9.68-29.84-19.62-58.99-40.21-87.4-61.71-.02-.02-.04-.04-.06-.06-41.5-31.39-81.43-64.77-119.66-99.93v-.02c-5-4.59-9.98-9.23-14.92-13.88-2.16-2.03-4.29-4.05-6.42-6.1-5.33-5.07-10.63-10.2-15.91-15.37-3.15-3.11-6.3-6.19-9.42-9.31-3.13-3.13-6.25-6.25-9.36-9.4-9.31-9.44-18.52-18.99-27.62-28.65-4.05-4.31-8.06-8.62-12.05-12.96-17.96-19.53-35.47-39.52-52.48-59.94-1.9-2.26-3.77-4.53-5.63-6.79-18.78-22.77-36.93-46.05-54.46-69.85-3.49-4.74-6.96-9.53-10.44-14.34-22.62-31.43-44.15-63.71-64.55-96.8-2.91-4.76-5.84-9.55-8.73-14.36-3.06-5.09-6.08-10.2-9.08-15.31-3.06-5.22-6.1-10.44-9.1-15.72-1.42-2.46-2.82-4.96-4.23-7.44-2.93-5.15-5.82-10.35-8.69-15.57-2.87-5.2-5.69-10.44-8.52-15.67-12.63-23.57-24.71-47.5-36.18-71.77-1.29-2.7-2.54-5.41-3.82-8.11-1.34-2.87-2.67-5.73-3.99-8.62-1.16-2.54-2.33-5.09-3.49-7.65-6.17-13.58-12.16-27.29-17.94-41.11-1.16-2.76-2.31-5.52-3.45-8.28-3.45-8.3-6.81-16.64-10.11-25.01-2.2-5.58-4.36-11.19-6.49-16.79-6.49-17.03-12.7-34.19-18.63-51.51-.91-2.65-1.81-5.3-2.7-7.96-1.14-3.39-2.26-6.77-3.38-10.15-1.68-5.13-3.34-10.28-5-15.44-1.98-6.3-3.97-12.63-5.91-18.99-1.6-5.3-3.19-10.61-4.74-15.93-3.41-11.62-6.68-23.31-9.83-35.04-1.57-5.86-3.13-11.75-4.64-17.64-1.51-5.89-2.98-11.79-4.42-17.72-.91-3.73-1.81-7.46-2.7-11.19-4.03-17.01-7.78-34.15-11.28-51.4-.58-2.89-1.16-5.8-1.75-8.71-1.14-5.82-2.24-11.64-3.34-17.48-.54-2.93-1.08-5.84-1.6-8.78-.6-3.43-1.23-6.88-1.83-10.35-1.01-6.04-2.03-12.09-3.02-18.15-1.47-9.12-2.85-18.28-4.16-27.47-.45-3.04-.88-6.12-1.29-9.18-.84-6.12-1.66-12.27-2.44-18.41-.78-6.17-1.51-12.31-2.22-18.5-.34-3.08-.69-6.17-1.01-9.27-.3-2.65-.58-5.3-.84-7.96-.69-6.64-1.34-13.28-1.94-19.94-.28-3.02-.54-6.06-.8-9.08-.54-6.32-1.03-12.63-1.51-18.95-.15-1.96-.28-3.9-.41-5.86,0-.15-.02-.28-.02-.43-2.65-37.6-3.99-75.59-3.99-113.88,0-27.94.95-55.78,2.7-83.27v-.06c.37-6.27.8-12.51,1.27-18.74,6.06-80.16,18.37-156.89,32.3-224.18,29.49-142.45,66.23-242.44,66.23-242.44,105.62-281.66,369.82-573.26,372.06-575.05l969.92-969.92s4.51-4.96,11.51-12.85L2084.76,4c.13.24.26.45.39.69.02.04.04.11.09.17,6.32,11.6,12.27,23.37,17.87,35.36,32.4,69.6,50.04,141.82,32.58,218.86Z"/>
    </g>
  </g>
</svg>