<?xml version="1.0" encoding="UTF-8"?>
<svg id="_05_Logo-rectangle" data-name="05_Logo-rectangle" xmlns="http://www.w3.org/2000/svg" xmlns:xlink="http://www.w3.org/1999/xlink" viewBox="0 0 7000 2600">
  <defs>
    <style>
      .cls-1 {
        fill: url(#linear-gradient);
      }

      .cls-1, .cls-2, .cls-3, .cls-4, .cls-5, .cls-6 {
        stroke-width: 0px;
      }

      .cls-2 {
        fill: url(#linear-gradient-4);
      }

      .cls-3 {
        fill: url(#linear-gradient-2);
      }

      .cls-4 {
        fill: url(#linear-gradient-3);
      }

      .cls-5 {
        fill: #231f20;
      }

      .cls-6 {
        fill: #00777d;
      }
    </style>
    <linearGradient id="linear-gradient" x1="1013.57" y1="1499.17" x2="1998" y2="1499.17" gradientUnits="userSpaceOnUse">
      <stop offset="0" stop-color="#004d49"/>
      <stop offset=".49" stop-color="#00777d"/>
    </linearGradient>
    <linearGradient id="linear-gradient-2" x1="686.68" y1="1841.85" x2="1477.98" y2="1841.85" xlink:href="#linear-gradient"/>
    <linearGradient id="linear-gradient-3" x1="441.04" y1="1972.81" x2="1733.78" y2="1972.81" xlink:href="#linear-gradient"/>
    <linearGradient id="linear-gradient-4" x1="363.94" y1="1615.07" x2="1928.42" y2="2456.58" xlink:href="#linear-gradient"/>
  </defs>
  <g id="Logo">
    <g id="Icon">
      <path id="stripe" class="cls-1" d="M1064.03,1417.14h883.51c27.85,0,50.46,22.61,50.46,50.46v113.14c0,.26-.21.46-.46.46h-983.97v-113.61c0-27.85,22.61-50.46,50.46-50.46Z"/>
      <path id="shadow_S" class="cls-3" d="M1477.98,1744.63s-.01.03-.01.04c-.55,1.56-1.12,3.12-1.69,4.69-.77,2.14-1.56,4.27-2.38,6.41-.83,2.19-1.68,4.38-2.55,6.58-.76,1.92-1.54,3.83-2.32,5.74-.66,1.6-1.33,3.19-2,4.79-24.79,58.62-60.27,111.25-105.43,156.39-45.14,45.15-97.77,80.63-156.39,105.43-60.8,25.71-125.27,38.75-191.65,38.75-41.87,0-82.99-5.18-122.91-15.48-119.62-113.5-196.48-271.61-203.97-447.68,14.46,164.66,150.51,294.41,317.83,298.95.2.01.39.01.59.01.38.01.77.01,1.16.03h.07c1.96.04,3.9.07,5.84.08,2.36,0,4.73,0,7.1-.04.62,0,1.23-.01,1.85-.04.66,0,1.33-.03,2-.04,1.31-.04,2.63-.09,3.95-.14.71-.03,1.42-.07,2.13-.11.17.01.34,0,.51-.03.63-.01,1.26-.04,1.88-.09.45-.01.89-.04,1.34-.07.59-.03,1.17-.07,1.76-.12,1.92-.11,3.82-.25,5.71-.41.92-.07,1.82-.14,2.72-.22.28-.03.54-.05.8-.08,1.01-.09,2.02-.18,3.02-.29.33-.03.66-.05.98-.1,1.19-.12,2.39-.25,3.57-.39,2.32-.25,4.63-.55,6.94-.87.63-.08,1.26-.17,1.89-.25,1.35-.2,2.7-.41,4.06-.62.58-.08,1.16-.17,1.72-.28,1.1-.17,2.19-.35,3.28-.54.85-.14,1.69-.29,2.55-.45,1.16-.21,2.31-.42,3.47-.64,1.43-.28,2.86-.55,4.28-.84.62-.13,1.23-.25,1.85-.39,3.33-.7,6.65-1.44,9.96-2.26,1.35-.33,2.7-.66,4.06-1.01,1.82-.47,3.65-.96,5.46-1.46,1.68-.46,3.36-.93,5.03-1.43.77-.21,1.52-.45,2.28-.68.62-.18,1.23-.37,1.84-.55.52-.16,1.05-.33,1.58-.49.46-.14.91-.29,1.35-.43.87-.26,1.73-.55,2.59-.83,1.93-.63,3.83-1.27,5.74-1.94.87-.29,1.75-.6,2.6-.92,10.63-3.79,21-8.12,31.1-12.96,1.1-.53,2.21-1.05,3.29-1.6.21-.1.43-.21.64-.32.97-.47,1.94-.96,2.9-1.46,2.49-1.26,4.96-2.56,7.42-3.89.83-.43,1.65-.89,2.48-1.35,3.61-1.98,7.18-4.04,10.7-6.16.92-.55,1.82-1.1,2.73-1.67.54-.33,1.08-.66,1.6-.98,1.13-.7,2.24-1.4,3.35-2.11,2.87-1.84,5.71-3.73,8.52-5.64,1.17-.8,2.34-1.6,3.49-2.43.49-.34.97-.68,1.46-1.04,1.13-.79,2.26-1.6,3.37-2.43,1.26-.92,2.51-1.84,3.75-2.78.24-.18.49-.35.72-.54.95-.72,1.89-1.44,2.84-2.18,1.19-.92,2.38-1.85,3.56-2.8.53-.42,1.06-.84,1.59-1.27,1.21-.97,2.42-1.96,3.61-2.95,1.3-1.08,2.6-2.18,3.89-3.28,1.17-1,2.34-2.01,3.49-3.03.37-.32.72-.64,1.09-.97,1.18-1.04,2.35-2.1,3.52-3.18.97-.87,1.92-1.76,2.87-2.66.29-.25.56-.51.83-.79.71-.64,1.4-1.31,2.1-2,.46-.42.91-.85,1.37-1.3.84-.8,1.65-1.61,2.48-2.45.39-.37.77-.75,1.16-1.14.83-.83,1.67-1.67,2.47-2.51,2.99-3.06,5.92-6.17,8.77-9.35.47-.49.91-.97,1.33-1.46,1.55-1.73,3.08-3.48,4.59-5.25.77-.91,1.55-1.81,2.3-2.73.18-.2.34-.39.5-.6.34-.39.67-.79.98-1.18.04-.04.08-.08.11-.13.66-.76,1.29-1.54,1.89-2.31.08-.09.16-.17.21-.26.32-.38.62-.75.91-1.13.11-.12.2-.22.28-.34.68-.84,1.37-1.69,2.02-2.55.47-.59.93-1.18,1.38-1.79.63-.8,1.25-1.61,1.86-2.43,2.85-3.75,5.6-7.57,8.28-11.46.45-.64.89-1.29,1.31-1.93.07-.08.13-.17.17-.25.76-1.09,1.48-2.18,2.21-3.28.8-1.19,1.58-2.39,2.35-3.6.04-.05.08-.12.12-.18.54-.84,1.08-1.68,1.6-2.52.68-1.08,1.35-2.15,2.01-3.24.71-1.14,1.4-2.28,2.09-3.44.87-1.46,1.73-2.93,2.59-4.41.01-.01.03-.01.03-.01h179.77Z"/>
      <path class="cls-6" d="M1451.32,603.4c-.24,11.01-1.56,22.17-4.13,33.5-3.79,16.76-9.95,32.2-17.73,46.72-11.21,20.88-25.84,39.84-41.82,58.04-.49.56-.98,1.12-1.5,1.67l-605.23,605.23s-4.38,5.72-6.83,8.34c-.03.03-6.71,7.32-9.91,11.07-.71.83-1.42,1.67-2.13,2.51-.49.58-.97,1.15-1.44,1.73-.49.58-.96,1.16-1.43,1.73-1.34,1.65-2.68,3.32-3.99,4.99-1.12,1.42-2.22,2.85-3.29,4.28-.18.24-.37.49-.55.74-.47.6-.93,1.22-1.38,1.84-.46.6-.91,1.22-1.35,1.84-.49.64-.97,1.3-1.43,1.96-3.33,4.63-6.55,9.36-9.65,14.16-.76,1.15-1.5,2.32-2.23,3.5-1.6,2.55-3.18,5.13-4.71,7.74-.84,1.43-1.68,2.87-2.51,4.33-.04.08-.08.14-.12.22-.71,1.25-1.4,2.49-2.1,3.75-.22.41-.45.81-.67,1.22-.7,1.29-1.39,2.59-2.07,3.89-.74,1.39-1.46,2.78-2.17,4.19-2.94,5.75-5.71,11.6-8.3,17.55-.49,1.12-.97,2.24-1.44,3.36-.53,1.22-1.04,2.45-1.54,3.69-.59,1.43-1.17,2.87-1.72,4.32-.41,1.01-.8,2.02-1.18,3.03-.34.89-.68,1.78-1.01,2.69-.33.91-.67,1.8-.98,2.7-1.1,3.06-2.17,6.13-3.18,9.23-.28.85-.55,1.71-.83,2.57-.28.85-.54,1.71-.8,2.57-.33,1.06-.66,2.14-.97,3.2-.39,1.29-.76,2.59-1.13,3.89-.28.95-.54,1.89-.79,2.83-.3,1.06-.59,2.14-.87,3.22-.54,2.03-1.06,4.08-1.55,6.13-.3,1.22-.59,2.43-.87,3.65-.29,1.22-.56,2.44-.83,3.66-.28,1.22-.53,2.45-.77,3.69-.17.8-.34,1.62-.49,2.43-.2.93-.38,1.88-.55,2.81-.45,2.27-.85,4.55-1.22,6.85-.18,1.08-.35,2.17-.53,3.24-.28,1.71-.54,3.41-.76,5.13-.1.6-.18,1.21-.26,1.82-.05.38-.11.76-.14,1.14-.13.91-.25,1.82-.35,2.74-.16,1.26-.32,2.52-.45,3.79-.25,2.22-.47,4.44-.67,6.68-.05.51-.1,1.04-.14,1.55-.07.79-.13,1.58-.2,2.36-.04.52-.08,1.06-.12,1.6-.09,1.13-.16,2.27-.24,3.41-.09,1.39-.17,2.78-.24,4.19-.12,2.36-.22,4.74-.29,7.11-.04,1.29-.07,2.57-.09,3.86-.01.56-.01,1.13-.03,1.68-.04,2.84-.04,5.66,0,8.48.01,1.42.04,2.82.08,4.23.17,6.92.56,13.78,1.16,20.59,7.49,176.07,84.36,334.18,203.97,447.68-23.35-6.01-46.29-13.78-68.74-23.27-37.75-15.97-73.02-36.37-105.4-60.93-17.9-13.57-34.91-28.42-50.99-44.5-45.15-45.14-80.63-97.77-105.43-156.39-.16-.38-.32-.75-.47-1.13h0c-.64-1.54-1.27-3.06-1.9-4.58-.38-.95-.77-1.9-1.16-2.86-.38-.96-.77-1.92-1.14-2.87-5.34-13.57-10.07-27.31-14.16-41.21-.56-1.9-1.1-3.81-1.64-5.72-.47-1.67-.93-3.33-1.39-5-.64-2.4-1.26-4.79-1.88-7.19-.39-1.51-.77-3.03-1.14-4.55-.5-2.09-.98-4.17-1.47-6.27-.28-1.19-.55-2.4-.81-3.61-2.14-9.66-3.98-19.4-5.53-29.18v-.03c-1.98-12.51-3.48-25.14-4.49-37.84-.35-4.45-.64-8.9-.88-13.36-.46-8.7-.68-17.44-.68-26.23,0-13.89.56-27.68,1.71-41.39.01-.07.01-.12.01-.17,4.32-51.74,16.72-102.07,37.03-150.09,12.38-29.28,27.43-57.07,45.03-83.18.01-.03.03-.05.04-.07,26.2-33.9,47.79-59.13,58.33-71.1.68-.77,1.31-1.48,1.89-2.14l.12-.13,592.09-592.09h.01s158.81-158.82,158.81-158.82c3.87,7.1,7.51,14.29,10.93,21.63,2.42,5.18,4.69,10.4,6.81,15.63,11.04,27.21,17.81,55.13,17.16,84.11Z"/>
      <path id="shadow_M" class="cls-4" d="M1733.78,1744.63c-.05.22-.1.43-.16.66-9.56,42.06-22.83,83.24-39.78,123.34-37.19,87.93-90.41,166.88-158.19,234.66-54.67,54.67-116.61,99.87-184.67,134.81-16.32,8.39-32.99,16.18-50,23.38-40.43,17.09-81.97,30.45-124.38,40.02h-.01c-53.12,12-107.62,18.03-163.02,18.03-10.67,0-21.3-.22-31.91-.67-73.5-3.1-145.25-16.95-214.11-41.32h-.01c-189.48-156.76-313.86-389.46-326.49-651.46,1.42,18.64,3.74,37.12,6.94,55.39,7.43,42.24,19.6,83.44,36.42,123.24,16.45,38.89,36.95,75.54,61.27,109.61,18.43,25.83,39.08,50.19,61.82,72.94,15.15,15.15,31,29.35,47.53,42.59h0c41.06,32.92,86.28,59.88,135.03,80.5,19.56,8.27,39.46,15.42,59.66,21.42,52.84,15.74,107.74,23.68,163.85,23.68,3.16,0,6.33-.03,9.49-.08h.01c74.2-1.18,146.16-16.32,214-45.02,68.37-28.92,129.79-70.33,182.55-123.09,52.77-52.77,94.18-114.18,123.09-182.55,8.33-19.7,15.53-39.74,21.55-60.09h169.51Z"/>
      <path class="cls-6" d="M1276.57,435.57c-.49,9.36-1.77,18.84-3.95,28.43-4.59,20.28-12.63,38.63-22.85,55.73h-.01c-10.38,17.38-23.04,33.48-36.69,49.02-.49.56-.98,1.12-1.5,1.67l-604.57,604.57.51.51c-.13.13-.26.26-.38.39-52.59,52.67-93.86,113.96-122.71,182.16-.76,1.79-1.5,3.57-2.23,5.37-.56,1.35-1.12,2.7-1.65,4.07-.29.68-.56,1.37-.83,2.06-.54,1.35-1.08,2.72-1.6,4.07-1.82,4.69-3.6,9.4-5.28,14.12-.49,1.3-.95,2.61-1.39,3.92-.35.97-.7,1.94-1.02,2.93-.64,1.84-1.26,3.69-1.88,5.53-.39,1.17-.77,2.35-1.16,3.52-.62,1.85-1.21,3.71-1.79,5.57-.53,1.64-1.04,3.28-1.52,4.92-.75,2.43-1.47,4.87-2.18,7.31-.29.97-.56,1.94-.84,2.93-.42,1.47-.83,2.95-1.23,4.42-.26.92-.51,1.84-.76,2.76-.5,1.89-1.01,3.78-1.5,5.67-.38,1.44-.74,2.87-1.09,4.32-.11.35-.18.71-.28,1.08-.05.22-.12.45-.16.67-.24.91-.46,1.81-.67,2.73-.07.2-.1.41-.16.62-.47,1.96-.93,3.92-1.38,5.88-.58,2.48-1.13,4.96-1.65,7.44-.47,2.14-.92,4.29-1.34,6.43-.17.75-.32,1.5-.46,2.23-.42,2.1-.83,4.2-1.22,6.3-.84,4.46-1.63,8.94-2.36,13.43-.63,3.85-1.21,7.7-1.77,11.58-.25,1.69-.49,3.39-.7,5.08-.07.41-.12.8-.16,1.21-1.21,9.25-2.19,18.55-2.94,27.89,0,.05,0,.11-.01.16-1.27,15.66-1.9,31.44-1.9,47.31,0,3.19.03,6.38.09,9.56v.03c.2,11.76.74,23.44,1.63,35.07,0,.08.01.14.01.22,12.63,262,137.01,494.7,326.49,651.45-13.91-4.92-27.72-10.28-41.39-16.05-2.74-1.17-5.49-2.34-8.22-3.53-2.73-1.19-5.45-2.4-8.16-3.64-2.13-.96-4.25-1.93-6.38-2.91-.92-.42-1.84-.84-2.74-1.27-2.35-1.1-4.7-2.22-7.05-3.35-2.6-1.25-5.21-2.52-7.8-3.81-.12-.05-.22-.1-.33-.16-2.38-1.18-4.75-2.38-7.11-3.58-.58-.29-1.16-.58-1.73-.88-2.3-1.18-4.58-2.36-6.86-3.57-2.63-1.38-5.24-2.77-7.84-4.19-2.39-1.29-4.78-2.6-7.14-3.91-.51-.28-1.01-.55-1.51-.85-2.3-1.27-4.58-2.56-6.86-3.87-1.93-1.1-3.85-2.22-5.76-3.35-1.01-.58-2.02-1.17-3.02-1.77-.17-.09-.34-.2-.5-.3-1.92-1.13-3.82-2.26-5.71-3.41-.2-.1-.38-.22-.58-.35-1.59-.96-3.16-1.92-4.74-2.9-.39-.22-.77-.46-1.16-.71-1.25-.76-2.49-1.55-3.73-2.32-1.84-1.14-3.66-2.3-5.49-3.48-1.72-1.09-3.44-2.21-5.15-3.33-.76-.49-1.54-.98-2.3-1.5-4.12-2.7-8.23-5.46-12.3-8.27-1.22-.83-2.44-1.68-3.66-2.53-1.48-1.01-2.95-2.05-4.44-3.1h0s-.01-.01-.01-.01c-.16-.11-.3-.22-.46-.33-.98-.7-1.98-1.4-2.97-2.11-1.37-.96-2.72-1.94-4.07-2.93-.87-.63-1.75-1.26-2.61-1.92-1.33-.96-2.65-1.93-3.96-2.91-1.5-1.1-2.98-2.22-4.46-3.36-.3-.21-.6-.43-.91-.67-1.64-1.23-3.28-2.49-4.91-3.75-.8-.6-1.6-1.22-2.39-1.85-1.58-1.22-3.16-2.45-4.73-3.7-2.06-1.61-4.11-3.26-6.16-4.91-1.97-1.59-3.92-3.19-5.88-4.8-2.1-1.73-4.19-3.47-6.27-5.22-2.06-1.73-4.11-3.48-6.14-5.25-.01,0-.01-.01-.01-.01-.89-.76-1.77-1.52-2.65-2.3-1.48-1.29-2.97-2.59-4.44-3.89-.98-.88-1.97-1.75-2.95-2.64-.93-.83-1.86-1.67-2.8-2.52-.98-.87-1.96-1.76-2.94-2.66-1.54-1.39-3.07-2.81-4.59-4.24-.38-.34-.76-.7-1.14-1.05-1.69-1.56-3.36-3.14-5.03-4.74-.55-.51-1.1-1.04-1.65-1.58-1.33-1.26-2.65-2.53-3.98-3.83-2.78-2.68-5.55-5.41-8.3-8.15-2.4-2.4-4.78-4.8-7.11-7.23-1.81-1.84-3.6-3.69-5.36-5.54-2.45-2.57-4.88-5.16-7.28-7.76-1.52-1.63-3.01-3.24-4.5-4.88-.47-.53-.96-1.05-1.43-1.59-1.19-1.3-2.36-2.61-3.53-3.92-1.05-1.18-2.1-2.36-3.14-3.54-.67-.74-1.31-1.48-1.97-2.23-1.44-1.64-2.87-3.29-4.29-4.96-1.68-1.94-3.35-3.91-5-5.88-2.27-2.69-4.52-5.39-6.72-8.12-4.67-5.7-9.25-11.47-13.72-17.3-1.37-1.77-2.72-3.56-4.07-5.34-.35-.46-.71-.93-1.04-1.39-1.54-2.05-3.05-4.08-4.55-6.14-1.44-1.97-2.89-3.95-4.31-5.93-.24-.32-.46-.62-.67-.93-1.47-2.06-2.94-4.12-4.4-6.2h0c-1.14-1.64-2.27-3.27-3.4-4.9-1.14-1.63-2.26-3.27-3.35-4.91-.84-1.23-1.68-2.48-2.51-3.73-.58-.84-1.14-1.69-1.69-2.53-.76-1.15-1.52-2.31-2.27-3.47-2.43-3.7-4.82-7.42-7.15-11.16l-2.48-3.98c-1.06-1.71-2.11-3.41-3.15-5.13v-.03c-1.17-1.9-2.32-3.82-3.47-5.75-1.13-1.88-2.24-3.78-3.35-5.68-.11-.14-.2-.3-.28-.46-1.01-1.72-2.01-3.47-3.01-5.2-1.67-2.9-3.29-5.81-4.91-8.74-.97-1.75-1.93-3.49-2.87-5.25-.25-.42-.47-.85-.7-1.29-1.18-2.17-2.35-4.36-3.49-6.55-.17-.29-.33-.59-.49-.89-1.25-2.38-2.48-4.75-3.7-7.14-.26-.51-.53-1.01-.77-1.52-1.04-2.05-2.07-4.1-3.1-6.16-.29-.56-.56-1.14-.85-1.72-.93-1.89-1.86-3.79-2.77-5.7-1.65-3.4-3.27-6.81-4.86-10.24-1.1-2.36-2.18-4.73-3.24-7.09-.12-.22-.21-.43-.3-.66-.93-2.05-1.85-4.11-2.74-6.17-.33-.72-.64-1.44-.96-2.17-1.1-2.52-2.18-5.04-3.26-7.57-2.94-6.93-5.76-13.9-8.47-20.91-.5-1.26-.98-2.53-1.47-3.81-.42-1.12-.84-2.23-1.26-3.35-.3-.79-.6-1.59-.89-2.39-.45-1.17-.88-2.35-1.3-3.52-2.26-6.17-4.44-12.35-6.52-18.57-.52-1.55-1.04-3.11-1.55-4.67-.39-1.19-.79-2.4-1.17-3.61-1.69-5.22-3.32-10.47-4.88-15.72-.6-2-1.18-3.99-1.76-5.99,0-.01-.01-.01-.01-.03-.58-2-1.14-3.98-1.69-5.97-.51-1.82-1.01-3.64-1.5-5.46-.6-2.18-1.19-4.37-1.76-6.58-.46-1.76-.92-3.52-1.35-5.28-1.14-4.49-2.24-8.99-3.28-13.51-.39-1.63-.76-3.26-1.13-4.88-1.01-4.44-1.97-8.87-2.87-13.32-.38-1.84-.76-3.67-1.12-5.5-.81-4.08-1.59-8.16-2.32-12.26-.72-3.99-1.4-7.99-2.06-12-.72-4.37-1.39-8.73-2.02-13.11-.28-1.9-.55-3.81-.8-5.71-.29-2.06-.56-4.14-.83-6.2-1.68-13.11-3.02-26.3-3.99-39.55h0c-.37-4.88-.68-9.75-.95-14.64-.74-13.57-1.1-27.21-1.1-40.9,0-19.73.76-39.32,2.3-58.79.01-.18.03-.38.04-.56.52-6.55,1.13-13.09,1.81-19.61,7.61-71.8,25.65-141.64,53.91-208.45,14.01-33.09,30.27-64.92,48.74-95.36,24.22-39.94,52.23-77.49,83.85-112.38l776.43-776.43c3.7,6.83,7.18,13.73,10.47,20.78,3.61,7.77,6.93,15.58,9.86,23.47h.01c9.79,26.32,15.38,53.33,13.91,81.34Z"/>
      <path id="shadow_L" class="cls-2" d="M1984.49,1751.61c-24.45,146.37-81.2,281.78-162.67,398.71-54.76,78.61-120.72,148.85-195.54,208.42-65.17,51.9-137.07,95.69-214.19,129.85h-.01c-74.31,32.96-153.45,56.97-236.08,70.7h-.03c-35.14,5.83-70.89,9.79-107.19,11.8h-.03c-18.27,1.02-36.69,1.54-55.21,1.54-23.27,0-46.36-.81-69.24-2.4-8.32-.58-16.62-1.26-24.87-2.05h-.03c-11.14-1.06-22.25-2.3-33.27-3.73-1.37-.17-2.72-.35-4.07-.54-15.63-2.09-31.16-4.54-46.56-7.35h-.01c-1.16-.21-2.31-.42-3.47-.64-1.61-.3-3.23-.6-4.83-.91-2.06-.39-4.12-.8-6.17-1.21-1.73-.34-3.48-.7-5.21-1.05-8.23-1.68-16.43-3.45-24.58-5.34-1.72-.39-3.44-.8-5.16-1.21-1.63-.38-3.24-.77-4.86-1.17-9.63-2.32-19.22-4.79-28.73-7.4-2.4-.66-4.8-1.33-7.21-2.01-5.2-1.47-10.38-2.98-15.55-4.54-3.03-.91-6.05-1.84-9.07-2.77-.63-.2-1.25-.38-1.86-.58-2.56-.8-5.11-1.61-7.65-2.44-.17-.05-.35-.1-.54-.17-3.06-.98-6.1-2-9.15-3.01-3.12-1.05-6.23-2.1-9.35-3.18-1.9-.66-3.81-1.31-5.7-1.98-1.9-.67-3.79-1.34-5.68-2.02-1.97-.71-3.94-1.42-5.89-2.14-1.81-.66-3.61-1.33-5.41-2-.93-.35-1.88-.71-2.82-1.06-2.82-1.06-5.63-2.13-8.43-3.22-1.21-.47-2.43-.95-3.64-1.42-3.35-1.31-6.69-2.64-10.03-3.99-258.85-198.3-430.85-504.29-449.05-851.02.84,11.5,1.93,22.97,3.27,34.39.18,1.65.38,3.31.59,4.96.26,2.21.55,4.42.84,6.63.13,1.09.28,2.17.43,3.24.2,1.56.42,3.14.63,4.7.01.05.03.09.03.14,0,.03.01.05.01.08.32,2.22.63,4.45.97,6.67.38,2.56.77,5.12,1.18,7.67.24,1.5.47,2.99.72,4.48.45,2.69.91,5.36,1.38,8.05v.03c.01.1.03.21.05.33.56,3.22,1.16,6.43,1.76,9.65.93,4.97,1.92,9.95,2.95,14.92.34,1.65.7,3.29,1.05,4.95.7,3.28,1.42,6.56,2.17,9.84.05.21.09.42.14.63,1.46,6.39,2.99,12.77,4.61,19.12.7,2.77,1.42,5.53,2.15,8.3.56,2.13,1.13,4.27,1.72,6.39.34,1.27.7,2.55,1.06,3.82,1.46,5.24,2.97,10.45,4.53,15.66.49,1.61.98,3.24,1.48,4.86.49,1.61,1,3.23,1.51,4.84.5,1.61,1.01,3.23,1.54,4.83.45,1.42.91,2.84,1.37,4.24.6,1.8,1.19,3.61,1.8,5.41.43,1.31.88,2.63,1.33,3.92.22.66.46,1.33.68,1.98.55,1.61,1.12,3.23,1.68,4.83,1.55,4.42,3.14,8.82,4.76,13.22.59,1.59,1.18,3.18,1.79,4.76.59,1.59,1.19,3.16,1.81,4.75.6,1.59,1.22,3.18,1.84,4.75,2.66,6.81,5.43,13.59,8.28,20.33,20.56,48.58,45.99,95.44,75.62,139.29,1.34,1.98,2.69,3.98,4.07,5.95,1.21,1.77,2.43,3.53,3.68,5.29,1.21,1.75,2.43,3.49,3.68,5.22,1.6,2.24,3.22,4.49,4.84,6.73.01.01.03.04.04.05.85,1.18,1.71,2.35,2.57,3.52.88,1.19,1.76,2.39,2.65,3.58.71.96,1.42,1.92,2.14,2.87,1.69,2.26,3.4,4.5,5.12,6.75,1.71,2.23,3.43,4.45,5.16,6.65.77,1,1.56,1.99,2.35,2.98,1,1.27,2.01,2.55,3.05,3.82.85,1.09,1.73,2.17,2.6,3.24,1.56,1.94,3.12,3.86,4.71,5.78.85,1.05,1.72,2.1,2.6,3.14.96,1.17,1.93,2.32,2.91,3.48,1.19,1.43,2.4,2.85,3.61,4.27,1.52,1.8,3.06,3.6,4.62,5.38,3.1,3.58,6.22,7.13,9.4,10.64.29.33.59.67.91,1,.93,1.04,1.86,2.07,2.81,3.11.53.59,1.08,1.18,1.63,1.77,1.13,1.25,2.27,2.48,3.41,3.71.81.89,1.64,1.79,2.48,2.66,2.14,2.3,4.29,4.58,6.46,6.84,1.16,1.22,2.32,2.42,3.49,3.62.5.53,1.01,1.04,1.52,1.56.8.83,1.6,1.65,2.42,2.47,1.77,1.82,3.56,3.62,5.36,5.42,2,2,4.02,3.99,6.04,5.97,1.14,1.13,2.3,2.24,3.45,3.35,1.21,1.19,2.42,2.35,3.64,3.5.87.84,1.73,1.68,2.61,2.49,1.44,1.38,2.89,2.74,4.34,4.08.76.72,1.54,1.44,2.31,2.15,1.3,1.22,2.61,2.42,3.92,3.62,1.19,1.1,2.4,2.21,3.62,3.29,2.28,2.07,4.58,4.12,6.89,6.17,2.02,1.8,4.07,3.58,6.12,5.36,1.63,1.42,3.27,2.82,4.92,4.21.58.51,1.15,1.01,1.73,1.48,1.55,1.33,3.1,2.63,4.66,3.92.67.58,1.35,1.14,2.03,1.69,1.96,1.65,3.94,3.27,5.92,4.87,2.17,1.77,4.33,3.52,6.52,5.26,2.18,1.75,4.37,3.48,6.58,5.2,2.21,1.72,4.41,3.43,6.63,5.13,3.32,2.55,6.67,5.08,10.03,7.56,3.36,2.49,6.73,4.96,10.13,7.38,0,.01.01.01.01.01,0,0,0,.01.01.01,1.6,1.15,3.2,2.3,4.82,3.44,1.81,1.3,3.62,2.57,5.43,3.83.8.55,1.59,1.1,2.39,1.65,2.24,1.55,4.49,3.08,6.75,4.61,2.26,1.52,4.52,3.03,6.79,4.53.85.58,1.72,1.14,2.59,1.71,2.01,1.33,4.02,2.63,6.04,3.91,2.45,1.59,4.91,3.15,7.38,4.7,1.38.87,2.76,1.73,4.13,2.57,4.1,2.55,8.22,5.05,12.35,7.51,1.48.89,2.97,1.77,4.46,2.64,1.85,1.1,3.71,2.19,5.59,3.26,1.76,1.02,3.54,2.03,5.32,3.05.16.09.32.18.49.28,3.69,2.09,7.39,4.13,11.1,6.17,1.89,1.04,3.78,2.06,5.68,3.07.11.07.22.13.33.18,1.79.96,3.58,1.92,5.38,2.85,1.9,1,3.82,2,5.74,2.98,1.92.98,3.83,1.97,5.75,2.94.25.13.5.26.75.38,3.79,1.92,7.6,3.79,11.42,5.66,4.23,2.05,8.48,4.07,12.75,6.04,1.73.81,3.47,1.6,5.21,2.39.71.33,1.4.66,2.13.97,3.58,1.63,7.17,3.22,10.78,4.78,2.38,1.04,4.76,2.06,7.15,3.07,10.74,4.54,21.55,8.85,32.45,12.92h.03c75.17,28.09,153.62,44.79,234.16,49.83h.03c17.44,1.1,34.98,1.65,52.61,1.65,55.3,0,109.74-5.39,162.98-16.11h.03c53.44-10.76,105.65-26.88,156.26-48.29,13.01-5.5,25.88-11.35,38.62-17.55h.01c34.84-16.93,68.56-36.37,100.66-58.07,2.03-1.38,4.07-2.77,6.1-4.17,5.78-3.98,11.52-8.03,17.21-12.18,1.97-1.43,3.94-2.86,5.89-4.32,1.37-1.01,2.73-2.03,4.1-3.06,13.44-10.08,26.58-20.58,39.38-31.49h.01c16.88-14.36,33.18-29.4,48.83-45.05,37.17-37.16,70.91-78.05,100.27-121.52,29.62-43.85,55.06-90.71,75.62-139.29,21.36-50.47,37.43-102.56,48.2-155.86h166.76Z"/>
      <path class="cls-6" d="M1098.04,297.6c-.13.56-.26,1.13-.41,1.69-8.72,36.77-28.71,67.17-52.54,95.4h-.01c-2.17,2.57-4.36,5.13-6.59,7.67l-117.97,118.17h-.01l-206.19,206.55h-.01l-234.95,235.33s0,.01-.01.01c0,0,0,.01-.01.01l-45.84,45.91c-6.76,6.76-13.4,13.64-19.91,20.63l-.21.21c-2.85,3.06-5.67,6.13-8.44,9.23-.56.6-1.12,1.21-1.64,1.81-.46.49-.89.98-1.33,1.47h-.01c-1.55,1.73-3.08,3.45-4.59,5.18-.16.17-.3.35-.45.52-1.65,1.86-3.28,3.73-4.9,5.62-3.65,4.21-7.25,8.48-10.8,12.77-1.05,1.26-2.09,2.53-3.12,3.81-4.12,5.04-8.19,10.12-12.18,15.25-1.17,1.5-2.32,2.99-3.48,4.49-.14.18-.29.37-.42.55-1.27,1.65-2.53,3.32-3.78,4.99-1.94,2.56-3.87,5.13-5.76,7.72-.46.6-.91,1.22-1.34,1.84-.18.22-.35.46-.52.7-.66.88-1.3,1.77-1.93,2.66-3.7,5.09-7.34,10.24-10.91,15.41-1.52,2.22-3.05,4.44-4.54,6.66-29.62,43.85-55.06,90.71-75.62,139.29-.88,2.09-1.76,4.17-2.61,6.26-.87,2.09-1.72,4.17-2.56,6.26-.97,2.4-1.93,4.8-2.87,7.22-.71,1.79-1.4,3.58-2.09,5.38-.81,2.1-1.61,4.2-2.4,6.31-.8,2.11-1.58,4.21-2.35,6.34-.64,1.73-1.27,3.48-1.89,5.21-.89,2.51-1.77,5-2.64,7.51-.01.03-.03.05-.03.08-1.86,5.34-3.66,10.71-5.41,16.11-.05.17-.11.34-.17.51-1.69,5.24-3.32,10.49-4.91,15.76-.41,1.37-.81,2.72-1.21,4.08-.64,2.18-1.29,4.36-1.9,6.55-.55,1.92-1.09,3.82-1.61,5.74-.66,2.34-1.3,4.67-1.92,7.01-.21.77-.42,1.55-.62,2.32-.63,2.38-1.25,4.75-1.86,7.13-.04.14-.07.28-.1.41-.64,2.56-1.29,5.13-1.92,7.69-.03.1-.05.21-.08.3-.66,2.72-1.3,5.42-1.93,8.14-1.06,4.54-2.09,9.1-3.06,13.65-.09.41-.18.8-.25,1.19-.2.91-.39,1.8-.58,2.7-.53,2.48-1.02,4.95-1.52,7.43-.56,2.78-1.1,5.57-1.63,8.36-.52,2.8-1.04,5.59-1.54,8.39-.42,2.34-.83,4.67-1.22,7.01-.13.77-.26,1.55-.39,2.32-.37,2.25-.74,4.5-1.09,6.76-.05.37-.12.72-.17,1.09-.42,2.69-.83,5.38-1.22,8.09-.39,2.64-.76,5.29-1.12,7.94-.42,3.07-.83,6.13-1.21,9.2-.3,2.41-.59,4.83-.87,7.25-.37,3.26-.74,6.51-1.06,9.78-.26,2.47-.5,4.93-.72,7.4-.07.62-.13,1.22-.17,1.84-.25,2.53-.47,5.07-.67,7.61-.12,1.42-.24,2.84-.35,4.27,0,.09-.01.18-.01.28-.07.81-.12,1.61-.18,2.43l-.2,2.72c-.13,1.81-.25,3.62-.37,5.45-.24,3.74-.46,7.49-.64,11.25-.13,2.52-.25,5.04-.35,7.56-.13,3.24-.25,6.5-.34,9.74-.07,2.07-.12,4.15-.17,6.22-.03,1.15-.04,2.31-.07,3.47-.04,1.73-.07,3.45-.08,5.18-.01,1.1-.03,2.21-.04,3.31-.01,2.36-.03,4.71-.03,7.07s.01,4.79.04,7.18c.01,2,.03,3.99.07,5.99.01.8.03,1.6.04,2.4.08,4.04.18,8.07.32,12.12.08,2.45.17,4.92.28,7.38.18,4.41.39,8.82.66,13.22.12,2.27.26,4.54.42,6.81.12,1.93.25,3.85.41,5.78.01.14.01.29.03.43.01.2.03.41.04.6,18.19,346.73,190.19,652.72,449.05,851.02-7.85-3.18-15.63-6.44-23.38-9.82-3.33-1.46-6.67-2.93-9.99-4.41-3.32-1.48-6.63-2.99-9.92-4.52-2.89-1.34-5.76-2.68-8.64-4.04-2.05-.97-4.1-1.96-6.14-2.94-1.64-.79-3.27-1.58-4.9-2.38-2.03-1-4.08-2.01-6.1-3.02-2.85-1.4-5.68-2.84-8.51-4.28-3.23-1.64-6.44-3.31-9.65-4.99-2.43-1.27-4.86-2.56-7.28-3.86-.77-.41-1.55-.83-2.31-1.23-2.18-1.17-4.34-2.35-6.52-3.54-2.59-1.42-5.17-2.85-7.76-4.29-.29-.17-.59-.33-.88-.5-2.24-1.26-4.49-2.52-6.72-3.81-.18-.11-.38-.21-.58-.33-.42-.24-.84-.47-1.26-.72-2.21-1.26-4.38-2.53-6.56-3.81-8.74-5.11-17.38-10.34-25.94-15.7-3.06-1.92-6.1-3.85-9.14-5.8-3.03-1.94-6.06-3.91-9.07-5.89-18.17-11.94-35.91-24.48-53.21-37.57-.01-.01-.03-.03-.04-.04-25.27-19.11-49.58-39.43-72.85-60.84h0c-3.05-2.81-6.08-5.63-9.08-8.47-1.31-1.23-2.61-2.47-3.91-3.71-3.24-3.08-6.47-6.21-9.69-9.36-1.92-1.89-3.83-3.77-5.74-5.67-1.9-1.9-3.81-3.81-5.7-5.72-5.67-5.75-11.28-11.56-16.81-17.44-2.47-2.63-4.91-5.25-7.34-7.89-10.93-11.89-21.59-24.06-31.95-36.49-1.16-1.38-2.3-2.76-3.43-4.13-11.43-13.86-22.48-28.04-33.16-42.53-2.13-2.89-4.24-5.8-6.35-8.73-13.77-19.14-26.88-38.79-39.3-58.93-1.77-2.9-3.56-5.81-5.32-8.74-1.86-3.1-3.7-6.21-5.53-9.32-1.86-3.18-3.71-6.35-5.54-9.57-.87-1.5-1.72-3.02-2.57-4.53-1.79-3.14-3.54-6.3-5.29-9.48-1.75-3.16-3.47-6.35-5.18-9.54-7.69-14.35-15.04-28.92-22.03-43.7-.79-1.64-1.55-3.29-2.32-4.94-.81-1.75-1.63-3.49-2.43-5.25-.71-1.55-1.42-3.1-2.13-4.66-3.75-8.27-7.4-16.62-10.92-25.03-.71-1.68-1.4-3.36-2.1-5.04-2.1-5.05-4.15-10.13-6.16-15.23-1.34-3.4-2.65-6.81-3.95-10.22-3.95-10.37-7.73-20.82-11.34-31.36-.55-1.61-1.1-3.23-1.64-4.84-.7-2.06-1.38-4.12-2.06-6.18-1.02-3.12-2.03-6.26-3.05-9.4-1.21-3.83-2.42-7.69-3.6-11.56-.97-3.23-1.94-6.46-2.89-9.7-2.07-7.07-4.07-14.19-5.99-21.33-.96-3.57-1.9-7.15-2.82-10.74-.92-3.58-1.81-7.18-2.69-10.79-.55-2.27-1.1-4.54-1.64-6.81-2.45-10.36-4.74-20.79-6.86-31.29-.35-1.76-.71-3.53-1.06-5.3-.7-3.54-1.37-7.09-2.03-10.64-.33-1.78-.66-3.56-.97-5.34-.37-2.09-.75-4.19-1.12-6.3-.62-3.68-1.23-7.36-1.84-11.05-.89-5.55-1.73-11.13-2.53-16.72-.28-1.85-.54-3.73-.79-5.59-.51-3.73-1.01-7.47-1.48-11.21-.47-3.75-.92-7.49-1.35-11.26-.21-1.88-.42-3.75-.62-5.64-.18-1.61-.35-3.23-.51-4.84-.42-4.04-.81-8.09-1.18-12.14-.17-1.84-.33-3.69-.49-5.53-.33-3.85-.63-7.69-.92-11.54-.09-1.19-.17-2.38-.25-3.57,0-.09-.01-.17-.01-.26-1.61-22.89-2.43-46.02-2.43-69.33,0-17.01.58-33.96,1.64-50.69v-.04c.22-3.82.49-7.61.77-11.41,3.69-48.8,11.18-95.52,19.66-136.48,17.96-86.72,40.32-147.6,40.32-147.6,64.3-171.48,225.15-349,226.51-350.09L908.53,301.63s2.74-3.02,7.01-7.82l151.5-151.5c.08.14.16.28.24.42.01.03.03.07.05.11,3.85,7.06,7.47,14.23,10.88,21.53,19.73,42.37,30.46,86.34,19.83,133.24Z"/>
    </g>
  </g>
  <g id="Text">
    <g id="LOGO_text">
      <path class="cls-5" d="M2234.41,1408.37h250.29v1139.69h-250.29v-1139.69Z"/>
      <path class="cls-5" d="M3222.14,1942.01h448.64v522.62c-103.89,59.82-253.44,100.75-399.84,100.75-368.35,0-623.37-245.57-623.37-582.44s258.16-591.89,624.94-591.89c146.4,0,272.33,40.93,362.06,91.3v248.72c-99.17-67.69-226.68-114.91-354.19-114.91-232.98,0-380.95,160.56-380.95,365.21s140.1,366.78,379.37,366.78c55.09,0,108.62-11.02,149.54-28.33v-173.16h-206.22v-204.64Z"/>
      <path class="cls-5" d="M3834.11,1408.37h418.73c122.78,0,218.81,20.46,297.52,77.13,78.71,56.67,132.23,149.55,132.23,273.9,0,151.12-81.86,266.03-220.38,319.55l310.11,469.1h-286.5l-280.2-432.89h-121.21v432.89h-250.29v-1139.69ZM4238.67,1916.82c62.97,0,105.47-7.87,140.1-31.48,34.63-23.61,53.52-67.69,53.52-114.91,0-50.37-20.46-92.88-53.52-116.49-33.06-23.61-77.13-31.48-140.1-31.48h-154.27v294.37h154.27Z"/>
      <path class="cls-5" d="M5314.42,1408.37h255.01l456.51,1139.69h-267.61l-92.88-239.27h-458.08l-92.88,239.27h-256.59l456.51-1139.69ZM5591.47,2112.02l-45.65-122.78c-34.63-94.45-75.56-207.79-103.89-292.79h-3.15c-31.48,89.73-70.84,198.34-108.62,294.37l-47.23,121.21h308.54Z"/>
      <path class="cls-5" d="M6645.13,2565.38c-365.21,0-618.65-251.87-618.65-584.01s255.01-590.31,620.22-590.31c121.21,0,236.12,28.33,325.85,78.71v247.14c-86.58-61.39-201.49-102.32-316.41-102.32-223.53,0-377.8,155.84-377.8,362.06s151.12,365.21,387.24,365.21c116.49,0,228.25-40.93,316.41-103.89v245.57c-94.45,55.1-220.38,81.86-336.87,81.86Z"/>
    </g>
  </g>
</svg>