<?xml version="1.0" encoding="utf-8"?>
<!-- Generator: Adobe Illustrator 22.1.0, SVG Export Plug-In . SVG Version: 6.00 Build 0)  -->
<svg version="1.1" id="Слой_1" xmlns="http://www.w3.org/2000/svg" xmlns:xlink="http://www.w3.org/1999/xlink" x="0px" y="0px"
	 viewBox="0 0 330.8 112.4" style="enable-background:new 0 0 330.8 112.4;" xml:space="preserve">
<style type="text/css">
	.st0{fill:#FF6C0E;}
	.st1{fill:#24619D;}
</style>
<title>logo</title>
<g id="Layer_2">
	<g id="Landing_Page">
		<path class="st0" d="M65.3,112.3c0.9-4.4,1.6-8.7,2.8-12.9h20.4c1.3,4.2,1.9,8.6,2.8,12.9H65.3z"/>
		<path class="st0" d="M68.5,97.7c0.5-1.6,1-3.2,1.5-4.8c0.8-2.8,1.9-5.5,3.2-8.1c1-2,2.5-3.6,4.4-4.7c1.5-0.2,3,0.5,3.8,1.7
			c2.5,2.7,3.7,6.1,4.9,9.5c0.8,1.9,1.3,3.8,1.6,5.9c0,0.1,0.2,0.2,0.4,0.5L68.5,97.7z"/>
		<path class="st0" d="M110.5,112.4H93.1c-0.9-4.3-1.7-8.6-2.6-12.9h13.6C106.6,103.6,108.8,107.9,110.5,112.4"/>
		<path class="st0" d="M50.4,99.4c-2.1,4.3-4.2,8.6-6.4,13H29.4c2.8-4.7,6.1-9,9.9-13H50.4z"/>
		<path class="st0" d="M83,81.1c1.1-0.5,1.8,0.1,2.5,0.5c2.5,1,4.9,2.4,7,4.1c2,1.7,3.9,3.5,5.6,5.5c1.4,1.7,2.7,3.5,4.1,5.2
			c0.3,0.4,0.5,0.8,0.8,1.3H90.1c-0.6-1.9-1.3-3.8-1.9-5.7c-0.5-1.9-1.2-3.8-2.1-5.7C85.3,84.5,84.2,82.7,83,81.1"/>
		<path class="st0" d="M73.6,80.8c-1.7,2-2.6,4.4-3.7,6.6c-0.9,2-1.6,4.1-2.2,6.2c-0.4,1.4-0.8,2.8-1.2,4.2h-13
			c0.5-0.8,1-1.6,1.5-2.3c0.5-0.7,1.1-1.4,1.7-2.2c1.5-2.1,3.2-4,5.1-5.8c2.7-2.5,5.9-4.6,9.3-6.1C72,81.1,72.8,80.9,73.6,80.8"/>
		<path class="st0" d="M66.2,82c-6.4,4.1-10.8,9.6-14.6,15.7H41c0.2-0.3,0.2-0.6,0.4-0.8c2.5-2,4.6-4.3,7.3-6.2
			c1.9-1.3,3.7-2.6,5.6-3.8c2.2-1.3,4.6-2.4,6.9-3.3c1.2-0.5,2.4-1,3.7-1.4C65.4,82.1,65.8,82,66.2,82"/>
		<path class="st0" d="M27.1,112.4h-9c3.6-4.7,7.6-9.1,12.1-12.9h6.4c-1,1.5-2.1,2.9-3.3,4.3c-1.1,1.5-2.2,2.9-3.2,4.4
			C29,109.6,28,111,27.1,112.4"/>
		<path class="st0" d="M44.1,87.1c-5.2,3.1-10.2,6.7-14.9,10.6h-4.8C30.5,93.3,37.1,89.7,44.1,87.1"/>
		<path class="st0" d="M106.7,99.4c2.1,4.3,4.2,8.6,6.4,13h14.6c-2.8-4.7-6.1-9-9.9-13H106.7z"/>
		<path class="st0" d="M90.9,82c6.4,4.1,10.8,9.6,14.6,15.7h10.6c-0.2-0.3-0.2-0.6-0.4-0.8c-2.5-2-4.6-4.3-7.3-6.2
			c-1.9-1.3-3.7-2.6-5.6-3.8c-2.2-1.3-4.6-2.4-6.9-3.3c-1.2-0.5-2.4-1-3.7-1.4C91.7,82,91.3,82,90.9,82"/>
		<polygon class="st0" points="52.5,99.4 65.9,99.4 63.6,112.3 46.1,112.3 		"/>
		<path class="st0" d="M53.7,85.3C53.4,85.5,47,85.8,32,97.7h6.2L53.7,85.3z"/>
		<path class="st0" d="M16.4,99.4c0,0-7,3.2-16.4,12.9h5.5c0,0,10.2-11,13.2-12.6L16.4,99.4z"/>
		<polygon class="st0" points="21.8,99.4 8,112.4 15.6,112.4 27.2,99.4 		"/>
		<path class="st0" d="M31.6,90.4c0,0-10.8,5.5-13.3,7.4h3.1L31.6,90.4z"/>
		<path class="st0" d="M129.7,112.3h9c-3.6-4.7-7.6-9.1-12.1-12.9h-6.4c1,1.5,2.1,2.9,3.3,4.3c1.1,1.5,2.2,2.9,3.2,4.4
			C127.7,109.5,128.8,110.9,129.7,112.3"/>
		<path class="st1" d="M112.7,87.1c5.2,3.1,10.2,6.7,14.9,10.6h4.8C126.3,93.2,119.7,89.6,112.7,87.1"/>
		<path class="st0" d="M103,85.2c0.4,0.2,6.7,0.6,21.7,12.5h-6.2L103,85.2z"/>
		<path class="st0" d="M140.4,99.4c0,0,7,3.2,16.4,12.9h-5.5c0,0-10.1-11-13.2-12.6L140.4,99.4z"/>
		<polygon class="st0" points="134.9,99.3 148.8,112.3 141.1,112.3 129.6,99.3 		"/>
		<path class="st1" d="M160.3,21c-0.2,3.4-0.5,8-0.5,16.1v30.3c0,10.4-2.1,19-8.3,24.4c-6.1,5.1-14.3,6.7-22.4,6.7
			c-7.2,0-14.8-1.4-19.8-4.2l3.4-12.8c4.9,2.7,10.4,4.1,16,4.1c8.1,0,14.3-4.3,14.3-14.3v-3.6h-0.2c-3.3,4.5-8.5,7.1-14.8,7.1
			c-13.6,0-23.3-10.9-23.3-26.5c0-17.4,11.5-28.5,25-28.5c7.5,0,12.3,3.2,15.1,7.7h0.2l0.6-6.4H160.3z M142.7,43.1
			c0-1-0.1-2.1-0.3-3.1c-1.2-4.4-4.5-7.4-9.2-7.4c-6.2,0-11.2,5.5-11.2,15.4c0,8.1,4,14.4,11.2,14.4c4.2,0,7.9-2.8,9-6.9
			c0.4-1.4,0.6-2.9,0.6-4.4L142.7,43.1z"/>
		<path class="st1" d="M173.5,38.9c0-8-0.2-13.2-0.5-17.9h14.7l0.6,10h0.4c2.8-7.9,9.6-11.2,14.8-11.2c1.2,0,2.4,0,3.6,0.2v15.9
			c-1.5-0.3-3.1-0.4-4.6-0.4c-6.3,0-10.6,3.3-11.7,8.5c-0.2,1.2-0.3,2.5-0.3,3.8v27.5h-17.1V38.9z"/>
		<path class="st1" d="M246.3,75.3l-1-5.4h-0.3c-3.6,4.3-9.2,6.7-15.7,6.7c-11.1,0-17.8-8-17.8-16.6c0-14.1,12.8-20.9,32.3-20.7
			v-0.8c0-2.9-1.6-7-10-7c-5.3,0.1-10.5,1.5-15.2,4.1l-3.1-10.9c3.8-2.1,11.4-4.8,21.4-4.8c18.3,0,24.2,10.7,24.2,23.4v18.9
			c-0.1,4.4,0.2,8.8,0.8,13.2H246.3z M244.2,49.7c-9-0.1-16,2-16,8.5c0,4.3,2.9,6.4,6.7,6.4c4,0,7.6-2.5,8.9-6.2
			c0.2-0.9,0.3-1.9,0.3-2.9L244.2,49.7z"/>
		<path class="st1" d="M315.6,74c-3,1.3-8.8,2.4-15.3,2.4c-17.8,0-29.1-10.7-29.1-27.7c0-15.9,11-28.8,31.5-28.8
			c4.4,0,8.8,0.7,13,2.1L313,34.5c-3-1.2-6.3-1.8-9.6-1.7c-9,0-14.8,6.3-14.7,15.2c0,10,6.7,15.2,15.1,15.2c3.3,0.1,6.7-0.5,9.8-1.7
			L315.6,74z"/>
		<path class="st1" d="M85,27.2c-3.1,0-6.2-1-8.7-2.8v50.9h17.2V24.6C91,26.3,88,27.3,85,27.2"/>
		<path class="st1" d="M96,11c-0.1,6.1-5.1,11-11.2,11c-6-0.1-10.9-4.9-11-11c0.1-6.1,5.1-11,11.2-11C91,0.1,95.9,4.9,96,11"/>
		<path class="st0" d="M315.7,48.2c0.1,5.9-4.6,10.7-10.5,10.7c-5.9,0.1-10.7-4.6-10.7-10.5c-0.1-5.9,4.6-10.7,10.5-10.7
			c0,0,0.1,0,0.1,0C310.9,37.7,315.7,42.3,315.7,48.2"/>
		<polygon class="st0" points="330.8,99.4 156.9,99.4 156.9,97.4 328.8,97.4 328.8,48.8 313.2,48.8 313.2,46.8 330.8,46.8 		"/>
	</g>
</g>
</svg>
